<svg xmlns="http://www.w3.org/2000/svg" viewBox="0 0 40.9 40.87"><defs><style>.cls-1{fill:#1ba7d1;}</style></defs><title>FBicon</title><g id="Layer_2" data-name="Layer 2"><g id="Layer_3" data-name="Layer 3"><path class="cls-1" d="M40.9,20.5A20.45,20.45,0,1,1,20.51,0,20.41,20.41,0,0,1,40.9,20.5ZM17.69,28.16v6c0,.31,0,.31.3.31h4.14c.36,0,.36,0,.36-.36V22.28c0-.35,0-.35.35-.35h4.4c.29,0,.29,0,.29-.29V18.13c0-.35,0-.35-.34-.35H22.76c-.15,0-.27,0-.27-.21,0-1-.07-2,.06-3,.09-.74.37-1.13,1.17-1.12s1.87,0,2.8,0c.25,0,.49,0,.74,0s.26-.07.25-.25,0-.08,0-.13c0-1.26,0-2.53,0-3.79,0-.17,0-.25-.23-.25C25.86,9,24.41,9,23,9a3.54,3.54,0,0,0-.58.07,5.69,5.69,0,0,0-3.79,2.77,6.71,6.71,0,0,0-.91,3.44c0,.73,0,1.46,0,2.19,0,.28,0,.29-.29.29H13.62c-.2,0-.27.06-.27.27,0,1.2,0,2.4,0,3.6,0,.29,0,.29.3.29h3.73c.31,0,.31,0,.31.31Z"/></g></g></svg>