<svg xmlns="http://www.w3.org/2000/svg" viewBox="0 0 39.91 39.9"><defs><style>.cls-1{fill:#1ba7d1;}</style></defs><title>IGicon</title><g id="Layer_2" data-name="Layer 2"><g id="Layer_3" data-name="Layer 3"><path class="cls-1" d="M20,39.9A20,20,0,1,1,39.91,20,20,20,0,0,1,20,39.9Zm-12-20c0,1.58,0,3.15,0,4.73a11.13,11.13,0,0,0,.36,2.56,6.14,6.14,0,0,0,2.84,3.7,7.5,7.5,0,0,0,3.49,1c1,.06,2.09.08,3.13.08h5.1a25.61,25.61,0,0,0,3-.14,7,7,0,0,0,2.85-.92,6.22,6.22,0,0,0,3-4.3A16.22,16.22,0,0,0,32,23.33c0-2.64.05-5.28,0-7.91a11.77,11.77,0,0,0-.22-2.14,6.21,6.21,0,0,0-5-5.08,13.49,13.49,0,0,0-3.11-.28c-1.8,0-3.61,0-5.42,0a36.54,36.54,0,0,0-4.32.16,6.88,6.88,0,0,0-2.55.78,6.18,6.18,0,0,0-3.14,4.22,14.58,14.58,0,0,0-.29,3.16C7.89,17.45,7.91,18.69,7.91,19.92Z"/><path class="cls-1" d="M29.85,20c0,1.05,0,2.1,0,3.15a20.08,20.08,0,0,1-.18,2.9,4.22,4.22,0,0,1-2,3.08,5.06,5.06,0,0,1-2.21.65c-2.18.19-4.37.1-6.56.12-.83,0-1.66,0-2.49,0a15.52,15.52,0,0,1-2.72-.22,4.16,4.16,0,0,1-2.82-1.83,5.05,5.05,0,0,1-.72-2.26A28.17,28.17,0,0,1,10,22.48c0-1.1,0-2.19,0-3.29s0-2.09,0-3.13a12.3,12.3,0,0,1,.24-2.57,4.08,4.08,0,0,1,2-2.77,5.29,5.29,0,0,1,2-.59A35.48,35.48,0,0,1,17.91,10l2.66,0c1.06,0,2.13,0,3.19,0a13.08,13.08,0,0,1,2.57.24,4.11,4.11,0,0,1,3.3,3.4,10.32,10.32,0,0,1,.18,1.83C29.88,17,29.84,18.47,29.85,20Zm-9.91-6.19A6.17,6.17,0,1,0,26.1,20,6.19,6.19,0,0,0,19.94,13.76Zm5-.25a1.42,1.42,0,1,0,2.83,0,1.42,1.42,0,1,0-2.83,0Z"/><path class="cls-1" d="M15.88,19.93a4.06,4.06,0,1,1,4,4.06A4.06,4.06,0,0,1,15.88,19.93Z"/></g></g></svg>