<svg xmlns="http://www.w3.org/2000/svg" xmlns:xlink="http://www.w3.org/1999/xlink" viewBox="0 0 155.79 115.52"><defs><style>.cls-1{fill:none;}.cls-2{fill:#fff;stroke:#fff;stroke-linecap:round;stroke-linejoin:round;stroke-width:3px;}.cls-3{fill:#51c4db;}.cls-4{fill:#1ba7d1;}.cls-5{fill:#158ac1;}.cls-6{fill:#0e73b0;}.cls-7{clip-path:url(#clip-path);}.cls-8{fill:url(#linear-gradient);}.cls-9{clip-path:url(#clip-path-2);}.cls-10{fill:url(#linear-gradient-2);}</style><clipPath id="clip-path"><polygon class="cls-1" points="77.91 101.82 1.5 113.84 1.5 109.74 77.92 89.52 77.91 95.92 77.91 101.82"/></clipPath><linearGradient id="linear-gradient" x1="-2169.77" y1="-36.05" x2="-2167.13" y2="-36.05" gradientTransform="matrix(0, 29, 29, 0, 1085.24, 62996.16)" gradientUnits="userSpaceOnUse"><stop offset="0" stop-color="#ea3533"/><stop offset="1" stop-color="#cc2028"/></linearGradient><clipPath id="clip-path-2"><polygon class="cls-1" points="77.92 89.52 154.29 109.91 154.29 114.02 77.91 101.82 51 96.64 77.92 89.52"/></clipPath><linearGradient id="linear-gradient-2" x1="-2184.55" y1="-28.37" x2="-2181.91" y2="-28.37" gradientTransform="matrix(0, 39.22, 39.22, 0, 1215.23, 85726.16)" xlink:href="#linear-gradient"/></defs><title>ReposubastaIconSVG</title><g id="Layer_2" data-name="Layer 2"><g id="Layer_3" data-name="Layer 3"><path class="cls-2" d="M120.39,59.09c.2-.09.38-.19.38-.32a1,1,0,0,0-.61-1c-.26-.14-5.42-2.51-12.18-5.65h0l0-21.95a1.1,1.1,0,0,0-1.34-1l-9.2,1.64,0-16.56a1,1,0,0,0-.73-1L59.22,1.54a1,1,0,0,0-1.32,1l-.07,68L38.27,74.07a1.37,1.37,0,0,0-1.12,1.3h0l0,21.87h0L77.93,86.45l42.8,11.42,0-39.1C120.77,58.9,120.59,59,120.39,59.09Z"/><polygon class="cls-2" points="77.92 89.52 1.5 109.74 1.5 113.84 77.91 101.82 154.29 114.02 154.29 109.91 77.92 89.52"/><path class="cls-3" d="M120.16,57.77a1,1,0,0,1,.61,1c0,.34-1.13.55-1.13.55L108,61.44V52.12c6.77,3.14,11.93,5.51,12.19,5.65"/><path class="cls-4" d="M108,52.12l0,9.32L97.43,63.35V47.23c3.64,1.69,7.27,3.35,10.54,4.89"/><path class="cls-3" d="M108,30.17l0,21.95c-3.27-1.54-6.9-3.2-10.54-4.89l0-16.44,9.2-1.64a1.1,1.1,0,0,1,1.34,1"/><path class="cls-5" d="M97.44,47.23V63.35L73.82,67.62l0-32a1.29,1.29,0,0,0,.71,1S86,41.92,97.44,47.23"/><path class="cls-4" d="M97.46,30.79l0,16.44C86,41.92,74.57,36.62,74.57,36.62a1.29,1.29,0,0,1-.71-1c0-.61.92-.76.92-.76Z"/><path class="cls-3" d="M97.48,14.23l0,16.57-22.68,4s-.92.15-.92.76l0,32-16,2.9.07-68a1,1,0,0,1,1.32-1L96.75,13.2a1,1,0,0,1,.73,1"/><path class="cls-4" d="M120.77,58.77c0,.34-1.14.55-1.14.55L108,61.44l0,33,12.8,3.41Z"/><polygon class="cls-5" points="107.93 94.46 107.97 61.44 97.43 63.35 97.39 91.64 107.93 94.46"/><polygon class="cls-6" points="73.8 87.54 77.92 86.45 97.39 91.64 97.43 63.35 73.82 67.62 73.82 67.62 73.8 87.54"/><polygon class="cls-4" points="73.82 67.62 57.83 70.53 57.8 91.77 73.8 87.54 73.82 67.62"/><rect class="cls-4" x="63.85" y="77.58" width="19.92" transform="translate(-3.85 151.3) rotate(-89.94)"/><polygon class="cls-3" points="37.15 75.37 37.15 75.37 37.12 97.24 37.12 97.24 37.15 75.37"/><path class="cls-3" d="M57.8,91.77l0-21.25L38.36,74.06a1.39,1.39,0,0,0-1.21,1.31l0,21.87Z"/><g class="cls-7"><rect class="cls-8" x="27.5" y="63.48" width="24.41" height="76.4" transform="translate(-62.02 141.28) rotate(-89.94)"/></g><g class="cls-9"><rect class="cls-10" x="90.44" y="50.1" width="24.41" height="103.31" transform="translate(0.78 204.29) rotate(-89.94)"/></g></g></g></svg>