<svg xmlns="http://www.w3.org/2000/svg" xmlns:xlink="http://www.w3.org/1999/xlink" viewBox="0 0 361.06 67.02"><defs><style>.cls-1{fill:none;}.cls-11,.cls-2{fill:#fff;stroke:#fff;}.cls-2{stroke-linecap:round;stroke-linejoin:round;stroke-width:3.56px;}.cls-3{fill:#51c4db;}.cls-4{fill:#1ba7d1;}.cls-5{fill:#158ac1;}.cls-6{fill:#0e73b0;}.cls-7{clip-path:url(#clip-path);}.cls-8{fill:url(#linear-gradient);}.cls-9{clip-path:url(#clip-path-2);}.cls-10{fill:url(#linear-gradient-2);}.cls-11{stroke-miterlimit:10;stroke-width:1.19px;}</style><clipPath id="clip-path"><polygon class="cls-1" points="44.87 58.35 1.78 65.14 1.78 62.82 44.88 51.42 44.87 55.03 44.87 58.35"/></clipPath><linearGradient id="linear-gradient" x1="-1588.66" y1="895.42" x2="-1587.18" y2="895.42" gradientTransform="matrix(0, 29, 29, 0, -25947.64, 46114.85)" gradientUnits="userSpaceOnUse"><stop offset="0" stop-color="#ea3533"/><stop offset="1" stop-color="#cc2028"/></linearGradient><clipPath id="clip-path-2"><polygon class="cls-1" points="44.88 51.42 87.95 62.92 87.95 65.23 44.87 58.35 29.7 55.44 44.88 51.42"/></clipPath><linearGradient id="linear-gradient-2" x1="-1598.58" y1="894.64" x2="-1597.09" y2="894.64" gradientTransform="matrix(0, 39.22, 39.22, 0, -35028.15, 62724.15)" xlink:href="#linear-gradient"/></defs><title>ReposubastaSVG</title><g id="Layer_2" data-name="Layer 2"><g id="Layer_3" data-name="Layer 3"><path class="cls-2" d="M68.83,34.26c.11,0,.21-.11.21-.18a.57.57,0,0,0-.34-.57l-6.87-3.18h0V18a.63.63,0,0,0-.76-.58l-5.18.93V9a.58.58,0,0,0-.42-.58L34.33,1.8a.58.58,0,0,0-.74.57l0,38.34-11,2a.78.78,0,0,0-.64.73h0V55.77h0l23-6.08L69,56.13l0-22.05C69,34.15,68.94,34.21,68.83,34.26Z"/><polygon class="cls-2" points="44.88 51.42 1.78 62.82 1.78 65.14 44.87 58.35 87.95 65.23 87.95 62.92 44.88 51.42"/><path class="cls-3" d="M68.7,33.51a.57.57,0,0,1,.34.57c0,.19-.64.31-.64.31l-6.58,1.19V30.33l6.87,3.18"/><path class="cls-4" d="M61.83,30.33v5.25l-5.94,1.08V27.57c2,.95,4.1,1.89,5.94,2.76"/><path class="cls-3" d="M61.84,18V30.33c-1.84-.87-3.89-1.81-5.94-2.76V18.3l5.18-.93a.63.63,0,0,1,.76.58"/><path class="cls-5" d="M55.89,27.57v9.09L42.57,39.07l0-18.07a.71.71,0,0,0,.4.58l12.9,6"/><path class="cls-4" d="M55.9,18.3v9.27l-12.9-6a.71.71,0,0,1-.4-.58c0-.34.52-.43.52-.43Z"/><path class="cls-3" d="M55.91,9V18.3L43.11,20.57s-.52.09-.52.43l0,18.07-9,1.64,0-38.34a.58.58,0,0,1,.74-.57L55.49,8.38a.58.58,0,0,1,.42.58"/><path class="cls-4" d="M69,34.08c0,.19-.64.31-.64.31l-6.58,1.19,0,18.62L69,56.13Z"/><polygon class="cls-5" points="61.8 54.2 61.82 35.58 55.88 36.66 55.86 52.62 61.8 54.2"/><polygon class="cls-6" points="42.55 50.3 44.88 49.69 55.86 52.62 55.88 36.66 42.57 39.07 42.57 39.07 42.55 50.3"/><polygon class="cls-4" points="42.57 39.07 33.55 40.71 33.53 52.69 42.55 50.3 42.57 39.07"/><rect class="cls-4" x="36.94" y="44.69" width="11.23" transform="translate(-2.17 87.19) rotate(-89.94)"/><polygon class="cls-3" points="21.88 43.44 21.88 43.44 21.87 55.77 21.87 55.77 21.88 43.44"/><path class="cls-3" d="M33.53,52.69l0-12-11,2a.8.8,0,0,0-.69.74V55.77Z"/><g class="cls-7"><rect class="cls-8" x="16.44" y="36.74" width="13.77" height="43.09" transform="translate(-34.98 81.54) rotate(-89.94)"/></g><g class="cls-9"><rect class="cls-10" x="51.94" y="29.19" width="13.77" height="58.26" transform="translate(0.44 117.08) rotate(-89.94)"/></g><path class="cls-11" d="M116.05,45.7l-7-11.66h-5.42V45.7h-.72V22.58h6.4a15.18,15.18,0,0,1,2.58.23,6.45,6.45,0,0,1,2.34.87,5,5,0,0,1,1.68,1.74,5.69,5.69,0,0,1,.65,2.88A5.41,5.41,0,0,1,116,31a5.15,5.15,0,0,1-1.6,1.74,6.65,6.65,0,0,1-2.17,1,10.06,10.06,0,0,1-2.34.29l7,11.69Zm-.2-17.4a4.77,4.77,0,0,0-.59-2.5,4.32,4.32,0,0,0-1.55-1.57,6.58,6.58,0,0,0-2.22-.8,14.51,14.51,0,0,0-2.56-.23h-5.29V33.42h5.65a7.65,7.65,0,0,0,4.88-1.34A4.55,4.55,0,0,0,115.85,28.3Z"/><path class="cls-11" d="M125.58,45.7V22.58h13.49v.66H126.3V33.39h12V34h-12v11h13.29v.65Z"/><path class="cls-11" d="M161.53,28.33a6,6,0,0,1-.54,2.6,5.39,5.39,0,0,1-1.45,1.87A6.57,6.57,0,0,1,157.4,34a8.46,8.46,0,0,1-2.59.39h-6V45.7h-.72V22.58h6.27a12.16,12.16,0,0,1,2.52.28,7.31,7.31,0,0,1,2.3.93,5.25,5.25,0,0,1,1.68,1.76A5.37,5.37,0,0,1,161.53,28.33Zm-.72,0a4.91,4.91,0,0,0-.55-2.45,4.54,4.54,0,0,0-1.44-1.57,6.23,6.23,0,0,0-2-.85,9.6,9.6,0,0,0-2.17-.26h-5.85V33.72h6a7.91,7.91,0,0,0,2.15-.3,5.51,5.51,0,0,0,1.93-.94,4.86,4.86,0,0,0,1.37-1.69A5.32,5.32,0,0,0,160.81,28.33Z"/><path class="cls-11" d="M192.72,34.14a13.09,13.09,0,0,1-.9,4.92,11.75,11.75,0,0,1-2.48,3.85,11.42,11.42,0,0,1-3.77,2.53,12.77,12.77,0,0,1-9.47,0,11.36,11.36,0,0,1-3.78-2.53,11.75,11.75,0,0,1-2.48-3.85,13.87,13.87,0,0,1,0-9.83,11.8,11.8,0,0,1,2.48-3.86,11.53,11.53,0,0,1,3.76-2.53,12.85,12.85,0,0,1,9.5,0,11.53,11.53,0,0,1,3.76,2.53,11.8,11.8,0,0,1,2.48,3.86A13,13,0,0,1,192.72,34.14Zm-.72,0a12.26,12.26,0,0,0-.82-4.52,10.93,10.93,0,0,0-2.3-3.67,10.7,10.7,0,0,0-3.54-2.47,11.75,11.75,0,0,0-9,0A10.7,10.7,0,0,0,172.78,26a10.93,10.93,0,0,0-2.3,3.67,12.47,12.47,0,0,0-.82,4.52,12.68,12.68,0,0,0,.8,4.52,11.16,11.16,0,0,0,2.27,3.68,10.68,10.68,0,0,0,3.53,2.46,12.05,12.05,0,0,0,9.14,0,10.68,10.68,0,0,0,3.53-2.46,11.16,11.16,0,0,0,2.27-3.68A12.68,12.68,0,0,0,192,34.14Z"/><path class="cls-11" d="M212.6,26.3a5.78,5.78,0,0,0-1.92-1.68,6,6,0,0,0-2.85-.63,5.91,5.91,0,0,0-1.73.26,5,5,0,0,0-1.6.8,4.21,4.21,0,0,0-1.16,1.35,4.07,4.07,0,0,0-.44,1.93,3.49,3.49,0,0,0,.43,1.83,3.83,3.83,0,0,0,1.12,1.22,6.21,6.21,0,0,0,1.6.83c.59.22,1.22.44,1.87.66.8.26,1.61.54,2.42.85a8.45,8.45,0,0,1,2.2,1.19,5.77,5.77,0,0,1,1.6,1.86,5.91,5.91,0,0,1,.62,2.86,6.3,6.3,0,0,1-.66,3,6.37,6.37,0,0,1-1.72,2.08A7.1,7.1,0,0,1,210,45.9a9.77,9.77,0,0,1-2.72.39,10.51,10.51,0,0,1-2.09-.21,10.06,10.06,0,0,1-2-.64,7.85,7.85,0,0,1-1.77-1.08,7.54,7.54,0,0,1-1.43-1.5l2-1.5a6.07,6.07,0,0,0,2.11,2.07,5.89,5.89,0,0,0,3.18.83,6.34,6.34,0,0,0,1.8-.27,5.23,5.23,0,0,0,1.64-.85,4.58,4.58,0,0,0,1.21-1.41,3.8,3.8,0,0,0,.48-1.94,3.88,3.88,0,0,0-.48-2,4.2,4.2,0,0,0-1.25-1.34,8,8,0,0,0-1.8-.89c-.68-.24-1.38-.48-2.12-.72s-1.52-.51-2.26-.82a7.51,7.51,0,0,1-2-1.19A5.52,5.52,0,0,1,201.09,31a5.87,5.87,0,0,1-.54-2.65,5.88,5.88,0,0,1,.67-2.87,6,6,0,0,1,1.75-2,7.2,7.2,0,0,1,2.38-1.15,9.67,9.67,0,0,1,2.58-.36,8.84,8.84,0,0,1,4,.84,6.78,6.78,0,0,1,2.51,2Z"/><path class="cls-11" d="M231.61,46.29a8.94,8.94,0,0,1-4.28-.9,7.67,7.67,0,0,1-2.65-2.27,8.34,8.34,0,0,1-1.35-3,13.46,13.46,0,0,1-.38-3.05V22.58h2.35V36.82a11.27,11.27,0,0,0,.33,2.73,6.89,6.89,0,0,0,1.06,2.35,5.52,5.52,0,0,0,1.94,1.66,7.23,7.23,0,0,0,6,0,5.52,5.52,0,0,0,1.94-1.66,6.89,6.89,0,0,0,1.06-2.35,11.27,11.27,0,0,0,.33-2.73V22.58h2.35v14.5a13.46,13.46,0,0,1-.38,3.05,8.34,8.34,0,0,1-1.35,3,7.53,7.53,0,0,1-2.66,2.27A9,9,0,0,1,231.61,46.29Z"/><path class="cls-11" d="M249.53,22.58h6.89a13.49,13.49,0,0,1,2.65.28,7.27,7.27,0,0,1,2.4.95,5.27,5.27,0,0,1,1.73,1.81,5.67,5.67,0,0,1,.67,2.87,4.91,4.91,0,0,1-1.12,3.19,5.29,5.29,0,0,1-3,1.78v.06a6.11,6.11,0,0,1,3.73,1.75,5.44,5.44,0,0,1,1.49,4A5.69,5.69,0,0,1,262.66,44a8.07,8.07,0,0,1-2.7,1.29,12.86,12.86,0,0,1-3.59.46h-6.84Zm2.35,10.12h4.74a7.79,7.79,0,0,0,1.71-.19,4.68,4.68,0,0,0,1.59-.67,3.67,3.67,0,0,0,1.15-1.26,3.79,3.79,0,0,0,.45-1.92,3.55,3.55,0,0,0-1.64-3.14,5,5,0,0,0-1.76-.7,10.62,10.62,0,0,0-2.16-.21h-4.08Zm0,11h4.38a11.91,11.91,0,0,0,2.43-.25,6.23,6.23,0,0,0,2-.78,4.23,4.23,0,0,0,1.38-1.41,3.88,3.88,0,0,0,.53-2.07,3.93,3.93,0,0,0-1.56-3.41,7.36,7.36,0,0,0-4.39-1.13h-4.8Z"/><path class="cls-11" d="M273.4,45.7h-2.58l10-23.12h2.29L293,45.7h-2.62l-2.54-6.07H275.92Zm3.4-8.23H287l-5.09-12.28Z"/><path class="cls-11" d="M310.89,26.3A5.81,5.81,0,0,0,309,24.62a5.93,5.93,0,0,0-2.84-.63,5.86,5.86,0,0,0-1.73.26,4.91,4.91,0,0,0-1.6.8,3.91,3.91,0,0,0-1.6,3.28,3.59,3.59,0,0,0,.42,1.83,4,4,0,0,0,1.12,1.22,6.21,6.21,0,0,0,1.6.83l1.87.66c.81.26,1.61.54,2.43.85a8.62,8.62,0,0,1,2.2,1.19,5.75,5.75,0,0,1,1.59,1.86,5.91,5.91,0,0,1,.62,2.86,6.17,6.17,0,0,1-2.37,5.06,7.29,7.29,0,0,1-2.41,1.21,9.84,9.84,0,0,1-2.73.39,10.58,10.58,0,0,1-2.09-.21,10.06,10.06,0,0,1-2-.64,7.78,7.78,0,0,1-1.76-1.08,7.32,7.32,0,0,1-1.44-1.5l2-1.5a6.15,6.15,0,0,0,2.11,2.07,5.89,5.89,0,0,0,3.18.83,6.34,6.34,0,0,0,1.8-.27,5.17,5.17,0,0,0,1.65-.85,4.72,4.72,0,0,0,1.21-1.41,3.9,3.9,0,0,0,.47-1.94,4,4,0,0,0-.47-2A4.35,4.35,0,0,0,309,36.44a7.56,7.56,0,0,0-1.8-.89c-.67-.24-1.38-.48-2.12-.72s-1.51-.51-2.25-.82a7.35,7.35,0,0,1-2-1.19A5.52,5.52,0,0,1,299.38,31a5.87,5.87,0,0,1-.54-2.65,5.77,5.77,0,0,1,.67-2.87,6,6,0,0,1,1.74-2,7.25,7.25,0,0,1,2.39-1.15,9.67,9.67,0,0,1,2.58-.36,8.83,8.83,0,0,1,4,.84,6.91,6.91,0,0,1,2.52,2Z"/><path class="cls-11" d="M328.19,45.7h-2.35v-21H318.1V22.58h17.83v2.09h-7.74Z"/><path class="cls-11" d="M340.54,45.7H338l10-23.12h2.28l9.93,23.12h-2.61L355,39.63H343.05Zm3.39-8.23h10.19L349,25.19Z"/></g></g></svg>