<svg xmlns="http://www.w3.org/2000/svg" xmlns:xlink="http://www.w3.org/1999/xlink" viewBox="0 0 234.09 44.11"><defs><style>.cls-1{fill:none;}.cls-2{fill:#fff;stroke:#fff;stroke-linecap:round;stroke-linejoin:round;stroke-width:3px;}.cls-3{fill:#51c4db;}.cls-4{fill:#1ba7d1;}.cls-5{fill:#158ac1;}.cls-6{fill:#0e73b0;}.cls-7{clip-path:url(#clip-path);}.cls-8{fill:url(#linear-gradient);}.cls-9{clip-path:url(#clip-path-2);}.cls-10{fill:url(#linear-gradient-2);}</style><clipPath id="clip-path"><polygon class="cls-1" points="29.42 38.16 1.5 42.55 1.5 41.05 29.43 33.66 29.42 36 29.42 38.16"/></clipPath><linearGradient id="linear-gradient" x1="-1575.94" y1="-1661.16" x2="-1574.98" y2="-1661.16" gradientTransform="matrix(0, 29, 29, 0, 48196.49, 45733.27)" gradientUnits="userSpaceOnUse"><stop offset="0" stop-color="#ea3533"/><stop offset="1" stop-color="#cc2028"/></linearGradient><clipPath id="clip-path-2"><polygon class="cls-1" points="29.43 33.66 57.33 41.11 57.33 42.62 29.42 38.16 19.59 36.27 29.43 33.66"/></clipPath><linearGradient id="linear-gradient-2" x1="-1586.01" y1="-1639.92" x2="-1585.05" y2="-1639.92" gradientTransform="matrix(0, 39.22, 39.22, 0, 64354.91, 62221.37)" xlink:href="#linear-gradient"/></defs><title>ReposubastaBlack</title><g id="Layer_2" data-name="Layer 2"><g id="Layer_3" data-name="Layer 3"><path class="cls-2" d="M44.94,22.54c.08,0,.14-.07.14-.11a.38.38,0,0,0-.22-.37L40.41,20h0V12a.41.41,0,0,0-.49-.38l-3.36.6v-6a.39.39,0,0,0-.27-.38L22.59,1.51a.38.38,0,0,0-.48.37l0,24.84L14.94,28a.49.49,0,0,0-.41.47h0v8h0l14.91-4,15.64,4.18V22.43S45,22.51,44.94,22.54Z"/><polygon class="cls-2" points="29.43 33.66 1.5 41.05 1.5 42.55 29.42 38.16 57.33 42.62 57.33 41.11 29.43 33.66"/><path class="cls-3" d="M44.86,22.06a.38.38,0,0,1,.22.37c0,.12-.41.2-.41.2l-4.27.77V20l4.45,2.06"/><path class="cls-4" d="M40.41,20v3.4l-3.85.7V18.21L40.41,20"/><path class="cls-3" d="M40.42,12v8l-3.85-1.79v-6l3.36-.6a.41.41,0,0,1,.49.38"/><path class="cls-5" d="M36.56,18.21V24.1l-8.62,1.56V14a.45.45,0,0,0,.26.37l8.36,3.88"/><path class="cls-4" d="M36.57,12.2v6L28.2,14.33a.45.45,0,0,1-.26-.37c0-.22.34-.28.34-.28Z"/><path class="cls-3" d="M36.57,6.15v6l-8.29,1.48s-.34.06-.34.28v11.7l-5.85,1.06,0-24.84a.38.38,0,0,1,.48-.37L36.3,5.77a.39.39,0,0,1,.27.38"/><path class="cls-4" d="M45.08,22.43c0,.12-.41.2-.41.2l-4.27.77V35.47l4.68,1.25Z"/><polygon class="cls-5" points="40.39 35.47 40.4 23.4 36.55 24.1 36.54 34.44 40.39 35.47"/><polygon class="cls-6" points="27.92 32.94 29.43 32.54 36.54 34.44 36.55 24.1 27.93 25.66 27.93 25.66 27.92 32.94"/><polygon class="cls-4" points="27.93 25.66 22.08 26.72 22.07 34.49 27.92 32.94 27.93 25.66"/><rect class="cls-4" x="24.28" y="29.3" width="7.28" transform="translate(-1.41 57.19) rotate(-89.94)"/><polygon class="cls-3" points="14.53 28.49 14.53 28.5 14.52 36.48 14.52 36.48 14.53 28.49"/><path class="cls-3" d="M22.07,34.49V26.72L15,28a.51.51,0,0,0-.44.48v8Z"/><g class="cls-7"><rect class="cls-8" x="11" y="24.15" width="8.92" height="27.92" transform="translate(-22.66 53.53) rotate(-89.94)"/></g><g class="cls-9"><rect class="cls-10" x="34" y="19.26" width="8.92" height="37.75" transform="translate(0.28 76.55) rotate(-89.94)"/></g><path d="M75.47,30.08l-4.53-7.55H67.62v7.55h-.71V14.85h4.27a9.82,9.82,0,0,1,1.69.15,4.55,4.55,0,0,1,1.56.58,3.37,3.37,0,0,1,1.13,1.18A3.76,3.76,0,0,1,76,18.68a3.58,3.58,0,0,1-.42,1.82,3.45,3.45,0,0,1-1.07,1.17,4.31,4.31,0,0,1-1.45.64,6.18,6.18,0,0,1-1.32.19l4.55,7.58Zm-4.31-8.2A4.85,4.85,0,0,0,74.24,21a2.84,2.84,0,0,0,1.05-2.36,3,3,0,0,0-.37-1.55,2.73,2.73,0,0,0-1-1,4.46,4.46,0,0,0-1.4-.5,8.82,8.82,0,0,0-1.63-.14H67.62v6.37Z"/><path d="M71.18,15a9.51,9.51,0,0,1,1.67.15,4.08,4.08,0,0,1,1.51.56,3.11,3.11,0,0,1,1.09,1.13,3.56,3.56,0,0,1,.43,1.86,3.47,3.47,0,0,1-.41,1.76,3.39,3.39,0,0,1-1,1.13,4.07,4.07,0,0,1-1.41.62,6.13,6.13,0,0,1-1.51.19L76.07,30h-.53L71,22.4H67.5V30H67V15h4.15M67.5,22h3.66a5,5,0,0,0,3.16-.86,3,3,0,0,0,1.09-2.46A3.18,3.18,0,0,0,75,17.06a2.77,2.77,0,0,0-1-1,4.33,4.33,0,0,0-1.44-.52,9.23,9.23,0,0,0-1.66-.15H67.5V22m3.68-7.27h-4.4V30.21h1V22.65h3.12l4.45,7.44.08.12h1.11l-.23-.38L72,22.62a7.5,7.5,0,0,0,1.14-.18,4.88,4.88,0,0,0,1.49-.66,3.62,3.62,0,0,0,1.11-1.22,3.71,3.71,0,0,0,.44-1.88,4,4,0,0,0-.46-2,3.6,3.6,0,0,0-1.17-1.22,4.43,4.43,0,0,0-1.61-.59,10,10,0,0,0-1.71-.15Zm-3.43.9h3.18a9.54,9.54,0,0,1,1.61.14,4.3,4.3,0,0,1,1.36.49,2.73,2.73,0,0,1,.92.93,2.91,2.91,0,0,1,.34,1.49,2.69,2.69,0,0,1-1,2.26,4.78,4.78,0,0,1-3,.81H67.75V15.63Z"/><polygon points="81.59 30.08 81.59 14.85 90.58 14.85 90.58 15.53 82.31 15.53 82.31 21.86 90.09 21.86 90.09 22.53 82.31 22.53 82.31 29.41 90.92 29.41 90.92 30.08 81.59 30.08"/><path d="M90.45,15v.42H82.18V22H90v.42H82.18v7.13h8.61V30H81.72V15h8.73m.25-.25H81.47V30.21H91v-.93H82.43V22.65h7.79v-.92H82.43V15.65H90.7v-.92Z"/><path d="M96.19,30.08V14.85h4.19A7.27,7.27,0,0,1,102,15a4.6,4.6,0,0,1,1.53.62,3.46,3.46,0,0,1,1.13,1.18,3.56,3.56,0,0,1,.45,1.86,4,4,0,0,1-.37,1.74,3.67,3.67,0,0,1-1,1.26,4.17,4.17,0,0,1-1.43.76,5.73,5.73,0,0,1-1.72.26H96.9v7.36Zm4.48-8a5,5,0,0,0,1.37-.19,3.45,3.45,0,0,0,1.2-.59,3.08,3.08,0,0,0,.86-1.05,3.44,3.44,0,0,0,.32-1.54,3.14,3.14,0,0,0-.34-1.52,2.81,2.81,0,0,0-.89-1,4,4,0,0,0-1.25-.53,5.89,5.89,0,0,0-1.37-.16H96.9v6.56Z"/><path d="M100.38,15a7.68,7.68,0,0,1,1.63.18,4.66,4.66,0,0,1,1.49.6,3.41,3.41,0,0,1,1.09,1.14,3.53,3.53,0,0,1,.42,1.8,3.85,3.85,0,0,1-.35,1.68,3.47,3.47,0,0,1-.94,1.22,4.12,4.12,0,0,1-1.39.74,5.47,5.47,0,0,1-1.68.26H96.78V30h-.47V15h4.07m-3.6,7.21h3.89a5.19,5.19,0,0,0,1.4-.19,3.55,3.55,0,0,0,1.25-.61,3.31,3.31,0,0,0,.89-1.09,3.57,3.57,0,0,0,.33-1.6,3.27,3.27,0,0,0-.35-1.58,3,3,0,0,0-.94-1,3.88,3.88,0,0,0-1.28-.55,6.16,6.16,0,0,0-1.4-.17H96.78v6.81m3.6-7.46H96.06V30.21h1V22.85h3.62a5.64,5.64,0,0,0,1.76-.27,4.34,4.34,0,0,0,1.47-.79,3.74,3.74,0,0,0,1-1.3,4.24,4.24,0,0,0,.37-1.79,3.66,3.66,0,0,0-.46-1.92,3.54,3.54,0,0,0-1.17-1.23,4.85,4.85,0,0,0-1.57-.64,8.14,8.14,0,0,0-1.68-.18Zm-3.35.9h3.54a6.37,6.37,0,0,1,1.35.16,3.8,3.8,0,0,1,1.2.52,2.73,2.73,0,0,1,.85.93,3,3,0,0,1,.32,1.46,3.25,3.25,0,0,1-.31,1.49,2.86,2.86,0,0,1-.81,1,3.36,3.36,0,0,1-1.17.57,5.07,5.07,0,0,1-1.33.18H97V15.63Z"/><path d="M117.51,30.51a8,8,0,0,1-3.11-.61,7.5,7.5,0,0,1-2.49-1.66,7.7,7.7,0,0,1-1.63-2.54,9.14,9.14,0,0,1,0-6.46,7.7,7.7,0,0,1,1.63-2.54A7.48,7.48,0,0,1,114.39,15a8.44,8.44,0,0,1,6.25,0,7.44,7.44,0,0,1,2.47,1.67,7.56,7.56,0,0,1,1.64,2.54,9.14,9.14,0,0,1,0,6.46,7.56,7.56,0,0,1-1.64,2.54,7.35,7.35,0,0,1-2.48,1.66A8,8,0,0,1,117.51,30.51Zm0-15.41a7.31,7.31,0,0,0-2.87.57,6.91,6.91,0,0,0-2.25,1.57,7.25,7.25,0,0,0-1.47,2.34,8.14,8.14,0,0,0-.52,2.89,8,8,0,0,0,.51,2.88,7.1,7.1,0,0,0,1.45,2.34,6.76,6.76,0,0,0,2.24,1.57,7.74,7.74,0,0,0,5.83,0,6.76,6.76,0,0,0,2.24-1.57,6.91,6.91,0,0,0,1.44-2.34,8,8,0,0,0,.51-2.88,7.93,7.93,0,0,0-.52-2.89,7.06,7.06,0,0,0-1.46-2.34,7,7,0,0,0-2.26-1.57A7.24,7.24,0,0,0,117.51,15.1Z"/><path d="M117.51,14.56a7.76,7.76,0,0,1,3.08.59A7.34,7.34,0,0,1,123,16.79a7.5,7.5,0,0,1,1.6,2.49,8.89,8.89,0,0,1,0,6.37,7.24,7.24,0,0,1-4,4.14,8.26,8.26,0,0,1-6.13,0A7.43,7.43,0,0,1,112,28.15a7.63,7.63,0,0,1-1.61-2.5,9,9,0,0,1,0-6.37A7.69,7.69,0,0,1,112,16.79a7.34,7.34,0,0,1,2.44-1.64,7.71,7.71,0,0,1,3.07-.59m0,15.4a7.49,7.49,0,0,0,3-.58,6.86,6.86,0,0,0,2.28-1.6,7,7,0,0,0,1.47-2.38,8.44,8.44,0,0,0,0-5.86,7.11,7.11,0,0,0-1.49-2.38,6.94,6.94,0,0,0-2.3-1.6,7.64,7.64,0,0,0-5.84,0,7,7,0,0,0-2.29,1.6,7.11,7.11,0,0,0-1.49,2.38,7.86,7.86,0,0,0-.53,2.93,8.1,8.1,0,0,0,.52,2.93,7,7,0,0,0,1.47,2.38,6.76,6.76,0,0,0,2.28,1.6,7.48,7.48,0,0,0,3,.58m0-15.65a8,8,0,0,0-3.17.61,7.55,7.55,0,0,0-2.52,1.69,8,8,0,0,0-1.66,2.58,9.27,9.27,0,0,0,0,6.56A7.58,7.58,0,0,0,114.35,30a8.52,8.52,0,0,0,6.33,0,7.66,7.66,0,0,0,4.19-4.27,9.27,9.27,0,0,0,0-6.56,7.81,7.81,0,0,0-1.67-2.58,7.51,7.51,0,0,0-2.51-1.69,8.08,8.08,0,0,0-3.18-.61Zm0,15.4a7.15,7.15,0,0,1-2.86-.56,6.77,6.77,0,0,1-2.2-1.54,7,7,0,0,1-1.42-2.3,8,8,0,0,1-.5-2.84,7.79,7.79,0,0,1,.51-2.84,6.9,6.9,0,0,1,1.44-2.3,6.76,6.76,0,0,1,2.21-1.54,7.38,7.38,0,0,1,5.64,0,6.7,6.7,0,0,1,2.22,1.54,7.06,7.06,0,0,1,1.44,2.3,7.82,7.82,0,0,1,.51,2.84,8,8,0,0,1-.5,2.84,7.12,7.12,0,0,1-1.42,2.3,6.77,6.77,0,0,1-2.2,1.54,7.2,7.2,0,0,1-2.87.56Z"/><path d="M134.63,30.46a6.46,6.46,0,0,1-1.38-.14,6,6,0,0,1-1.32-.42,5.23,5.23,0,0,1-1.17-.71,5.29,5.29,0,0,1-.95-1l-.07-.1L131.26,27l.07.12a3.91,3.91,0,0,0,1.32,1.3,3.75,3.75,0,0,0,2,.52,4.08,4.08,0,0,0,1.13-.17,3.47,3.47,0,0,0,1-.53,3.14,3.14,0,0,0,.75-.87,2.71,2.71,0,0,0,0-2.44,2.69,2.69,0,0,0-.78-.83,5.18,5.18,0,0,0-1.13-.56c-.44-.16-.9-.31-1.38-.47s-1-.33-1.46-.53a5.2,5.2,0,0,1-1.33-.79,3.82,3.82,0,0,1-.95-1.22,3.93,3.93,0,0,1-.36-1.77,3.92,3.92,0,0,1,.45-1.92,4.14,4.14,0,0,1,1.16-1.33,4.87,4.87,0,0,1,1.59-.76,6.34,6.34,0,0,1,1.7-.24,5.84,5.84,0,0,1,2.66.56,4.5,4.5,0,0,1,1.68,1.31l.07.1-1.4,1.13-.08-.11a3.63,3.63,0,0,0-1.21-1.05A3.77,3.77,0,0,0,135,16a3.86,3.86,0,0,0-1.09.17,3,3,0,0,0-1,.5,2.38,2.38,0,0,0-1,2,2.18,2.18,0,0,0,.26,1.12,2.38,2.38,0,0,0,.69.76,3.85,3.85,0,0,0,1,.52l1.2.43c.53.16,1.05.35,1.58.55a5.54,5.54,0,0,1,1.46.79,3.76,3.76,0,0,1,1.06,1.24,3.94,3.94,0,0,1,.42,1.91,4.31,4.31,0,0,1-.44,2A4.19,4.19,0,0,1,138,29.4a4.63,4.63,0,0,1-1.6.8A6.17,6.17,0,0,1,134.63,30.46Z"/><path d="M135.07,14.6a5.79,5.79,0,0,1,2.61.54,4.43,4.43,0,0,1,1.63,1.28l-1.21,1a3.67,3.67,0,0,0-1.25-1.09,3.88,3.88,0,0,0-1.84-.41,3.67,3.67,0,0,0-1.12.17,3.08,3.08,0,0,0-1,.52,2.5,2.5,0,0,0-1,2.12,2.36,2.36,0,0,0,.27,1.19,2.61,2.61,0,0,0,.73.79,4.19,4.19,0,0,0,1,.54l1.22.42c.52.17,1,.36,1.57.55a5.73,5.73,0,0,1,1.42.78,3.68,3.68,0,0,1,1,1.2,3.93,3.93,0,0,1,.4,1.85A4,4,0,0,1,138,29.3a4.58,4.58,0,0,1-1.56.78,6.37,6.37,0,0,1-1.77.26,6.88,6.88,0,0,1-1.35-.14,5.89,5.89,0,0,1-1.29-.41,5.44,5.44,0,0,1-1.15-.7,5.34,5.34,0,0,1-.93-1l1.31-1a4,4,0,0,0,1.37,1.35,3.84,3.84,0,0,0,2.06.54,4,4,0,0,0,1.16-.18,3.29,3.29,0,0,0,1.07-.55,3.15,3.15,0,0,0,.79-.91,2.88,2.88,0,0,0,0-2.56,2.73,2.73,0,0,0-.82-.87,5,5,0,0,0-1.16-.58c-.44-.16-.9-.31-1.38-.47s-1-.33-1.46-.53a4.65,4.65,0,0,1-1.29-.77,3.65,3.65,0,0,1-.92-1.17,3.88,3.88,0,0,1-.35-1.72,3.76,3.76,0,0,1,.44-1.86,3.91,3.91,0,0,1,1.13-1.29,4.77,4.77,0,0,1,1.54-.74,6.52,6.52,0,0,1,1.67-.23m0-.25a6.5,6.5,0,0,0-1.73.24,4.91,4.91,0,0,0-1.63.78,4.17,4.17,0,0,0-1.2,1.37,4,4,0,0,0-.47,2,4.06,4.06,0,0,0,.38,1.83,3.92,3.92,0,0,0,1,1.25,4.9,4.9,0,0,0,1.36.81c.48.2,1,.38,1.48.54l1.36.46a4.81,4.81,0,0,1,1.11.56,2.39,2.39,0,0,1,.74.78,2.32,2.32,0,0,1,.27,1.18,2.28,2.28,0,0,1-.27,1.13,2.89,2.89,0,0,1-1.71,1.35,3.8,3.8,0,0,1-1.09.17,3.56,3.56,0,0,1-1.93-.51A3.68,3.68,0,0,1,131.44,27l-.14-.23-.23.16-1.31,1-.2.14.15.2a5.32,5.32,0,0,0,1,1,5.59,5.59,0,0,0,1.19.73,6.85,6.85,0,0,0,1.35.43,7.3,7.3,0,0,0,1.4.14,6.87,6.87,0,0,0,1.84-.26,5,5,0,0,0,1.64-.83,4.25,4.25,0,0,0,1.18-1.43,4.37,4.37,0,0,0,.46-2.05,4,4,0,0,0-.44-2,3.9,3.9,0,0,0-1.1-1.28,5.78,5.78,0,0,0-1.49-.81c-.53-.2-1.06-.39-1.58-.55l-1.2-.42a4.53,4.53,0,0,1-1-.51,2.34,2.34,0,0,1-.65-.72,2.08,2.08,0,0,1-.24-1.06,2.25,2.25,0,0,1,.93-1.92,2.89,2.89,0,0,1,1-.48,3.57,3.57,0,0,1,1-.16,3.64,3.64,0,0,1,1.72.38,3.5,3.5,0,0,1,1.17,1l.15.21.21-.16,1.2-1,.19-.15-.14-.19a4.75,4.75,0,0,0-1.72-1.36,6.14,6.14,0,0,0-2.72-.56Z"/><path d="M150.41,30.46a6.06,6.06,0,0,1-2.83-.59,5.19,5.19,0,0,1-1.75-1.51,5.47,5.47,0,0,1-.9-2,8.63,8.63,0,0,1-.25-2V14.85h1.77V24.2a7.15,7.15,0,0,0,.21,1.74,4.34,4.34,0,0,0,.67,1.48,3.35,3.35,0,0,0,1.22,1,3.88,3.88,0,0,0,1.86.4,3.92,3.92,0,0,0,1.87-.4,3.44,3.44,0,0,0,1.22-1,4.32,4.32,0,0,0,.66-1.48,7.21,7.21,0,0,0,.21-1.74V14.85h1.78v9.52a9.27,9.27,0,0,1-.25,2,5.64,5.64,0,0,1-.9,2,5.17,5.17,0,0,1-1.77,1.51A6,6,0,0,1,150.41,30.46Z"/><path d="M156,15v9.39a8.9,8.9,0,0,1-.24,2,5.67,5.67,0,0,1-.88,1.94,4.93,4.93,0,0,1-1.73,1.47,6.88,6.88,0,0,1-5.53,0,4.94,4.94,0,0,1-1.71-1.47,5.32,5.32,0,0,1-.88-1.94,8.9,8.9,0,0,1-.24-2V15h1.52V24.2a7.39,7.39,0,0,0,.21,1.77,4.31,4.31,0,0,0,.69,1.52,3.49,3.49,0,0,0,1.26,1.08,4,4,0,0,0,1.92.41,4.05,4.05,0,0,0,1.93-.41,3.49,3.49,0,0,0,1.26-1.08,4.47,4.47,0,0,0,.68-1.52,6.92,6.92,0,0,0,.22-1.77V15H156m.25-.25h-2V24.2a6.91,6.91,0,0,1-.21,1.71,4.11,4.11,0,0,1-.65,1.44,3.18,3.18,0,0,1-1.17,1,3.79,3.79,0,0,1-1.81.38,3.85,3.85,0,0,1-1.81-.38,3.35,3.35,0,0,1-1.17-1,4.3,4.3,0,0,1-.65-1.44,7.41,7.41,0,0,1-.2-1.71V14.73h-2v9.64a8.87,8.87,0,0,0,.25,2,5.58,5.58,0,0,0,.91,2,5.36,5.36,0,0,0,1.8,1.55,7.13,7.13,0,0,0,5.77,0,5.21,5.21,0,0,0,1.81-1.55,5.69,5.69,0,0,0,.92-2,8.87,8.87,0,0,0,.25-2V14.73Z"/><path d="M161.9,30.08V14.85h4.59a8.06,8.06,0,0,1,1.74.19,4.7,4.7,0,0,1,1.6.63A3.54,3.54,0,0,1,171,16.88a3.78,3.78,0,0,1,.45,1.93,3.29,3.29,0,0,1-.75,2.14A3.5,3.5,0,0,1,169.13,22a4,4,0,0,1,2,1.09,3.67,3.67,0,0,1,1,2.7,3.78,3.78,0,0,1-1.55,3.12,5.61,5.61,0,0,1-1.79.85,8.61,8.61,0,0,1-2.36.3Zm4.49-1.56a7.76,7.76,0,0,0,1.55-.15,4,4,0,0,0,1.27-.5,2.72,2.72,0,0,0,.86-.86,2.51,2.51,0,0,0,.32-1.28,2.43,2.43,0,0,0-1-2.11,4.64,4.64,0,0,0-2.77-.71h-3v5.61Zm.23-7.11a5,5,0,0,0,1.08-.12,2.9,2.9,0,0,0,1-.42,2.2,2.2,0,0,0,.71-.77,2.41,2.41,0,0,0,.27-1.19,2.28,2.28,0,0,0-.27-1.15,2.34,2.34,0,0,0-.73-.77,3.1,3.1,0,0,0-1.1-.44,6.77,6.77,0,0,0-1.37-.14h-2.52v5Z"/><path d="M166.49,15a8.45,8.45,0,0,1,1.72.18,4.7,4.7,0,0,1,1.55.61A3.34,3.34,0,0,1,170.88,17a3.61,3.61,0,0,1,.44,1.86,3.14,3.14,0,0,1-.73,2.06A3.32,3.32,0,0,1,168.66,22v.05a3.92,3.92,0,0,1,2.41,1.13,3.49,3.49,0,0,1,1,2.61,3.58,3.58,0,0,1-.4,1.7,3.78,3.78,0,0,1-1.1,1.32,5.42,5.42,0,0,1-1.76.83,8.31,8.31,0,0,1-2.32.3H162V15h4.46m-2.94,6.56h3.07a5.25,5.25,0,0,0,1.11-.13,3.13,3.13,0,0,0,1-.43,2.37,2.37,0,0,0,.75-.82,2.51,2.51,0,0,0,.28-1.25,2.38,2.38,0,0,0-.28-1.21,2.35,2.35,0,0,0-.78-.82,3.24,3.24,0,0,0-1.14-.45,6.82,6.82,0,0,0-1.39-.14h-2.65v5.25m0,7.11h2.84a8,8,0,0,0,1.57-.16,4.17,4.17,0,0,0,1.31-.51,2.61,2.61,0,0,0,.9-.91,2.5,2.5,0,0,0,.34-1.34,2.54,2.54,0,0,0-1-2.21,4.77,4.77,0,0,0-2.85-.73h-3.11v5.86m2.94-13.92h-4.71V30.21h4.68a8.39,8.39,0,0,0,2.39-.31,5.71,5.71,0,0,0,1.84-.87,4.27,4.27,0,0,0,1.18-1.4,4,4,0,0,0,.42-1.82,3.79,3.79,0,0,0-1-2.79,4.09,4.09,0,0,0-1.72-1,3.42,3.42,0,0,0,1.26-1,3.45,3.45,0,0,0,.78-2.22,3.91,3.91,0,0,0-.47-2,3.66,3.66,0,0,0-1.21-1.26,5.11,5.11,0,0,0-1.63-.65,9,9,0,0,0-1.77-.18Zm-2.69,1.81h2.4a6.41,6.41,0,0,1,1.34.13,3.27,3.27,0,0,1,1.06.42,2.19,2.19,0,0,1,.69.73,2.14,2.14,0,0,1,.25,1.09,2.28,2.28,0,0,1-.25,1.13,2.14,2.14,0,0,1-.67.73,3.09,3.09,0,0,1-1,.4,4.77,4.77,0,0,1-1,.12H163.8V16.54Zm0,6.5h2.86a4.58,4.58,0,0,1,2.7.68,2.66,2.66,0,0,1,.6,3.22,2.41,2.41,0,0,1-.82.83,3.89,3.89,0,0,1-1.23.47,7.46,7.46,0,0,1-1.52.16H163.8V23Z"/><path d="M188.43,30.08l-1.65-3.93h-7.57l-1.63,3.93h-2l6.58-15.23h1.65l6.54,15.23Zm-2.32-5.58L183,17l-3.11,7.5Z"/><path d="M183.78,15l6.43,15h-1.69L186.87,26h-7.75L177.49,30h-1.67l6.48-15h1.48m-4.09,9.65h6.61l-3.31-8-3.3,8m4.25-9.9h-1.81l-.06.15-6.48,15-.15.35h2.22l.06-.16,1.57-3.78h7.41l1.59,3.78.06.16h2.24l-.15-.35-6.43-15-.07-.15Zm-3.87,9.65L183,17.32l2.93,7.06Z"/><path d="M198.31,30.46a6.46,6.46,0,0,1-1.38-.14,5.89,5.89,0,0,1-1.31-.42,5,5,0,0,1-1.17-.71,5.68,5.68,0,0,1-1-1l-.07-.1L194.94,27l.07.12a3.86,3.86,0,0,0,1.33,1.3,3.69,3.69,0,0,0,2,.52,4.08,4.08,0,0,0,1.13-.17,3.35,3.35,0,0,0,1-.53,3.14,3.14,0,0,0,.75-.87,2.71,2.71,0,0,0,0-2.44,2.57,2.57,0,0,0-.78-.83,5.18,5.18,0,0,0-1.13-.56L198,23a15.13,15.13,0,0,1-1.47-.53,5.2,5.2,0,0,1-1.33-.79,3.82,3.82,0,0,1-.95-1.22,3.93,3.93,0,0,1-.36-1.77,3.92,3.92,0,0,1,.45-1.92,4.16,4.16,0,0,1,1.17-1.33,4.82,4.82,0,0,1,1.58-.76,6.41,6.41,0,0,1,1.71-.24,5.83,5.83,0,0,1,2.65.56,4.5,4.5,0,0,1,1.68,1.31l.07.1-1.4,1.13-.08-.11a3.63,3.63,0,0,0-1.21-1.05,3.72,3.72,0,0,0-1.78-.4,3.79,3.79,0,0,0-1.08.17,3,3,0,0,0-1,.5,2.38,2.38,0,0,0-1,2,2.18,2.18,0,0,0,.26,1.12,2.5,2.5,0,0,0,.69.76,4,4,0,0,0,1,.52l1.21.43c.52.16,1,.35,1.57.55a5.54,5.54,0,0,1,1.46.79,3.91,3.91,0,0,1,1.07,1.24A4.06,4.06,0,0,1,203.3,26a4.09,4.09,0,0,1-1.58,3.38,4.77,4.77,0,0,1-1.61.8A6.17,6.17,0,0,1,198.31,30.46Z"/><path d="M198.76,14.6a5.77,5.77,0,0,1,2.6.54A4.43,4.43,0,0,1,203,16.42l-1.21,1a3.67,3.67,0,0,0-1.25-1.09,3.85,3.85,0,0,0-1.84-.41,3.72,3.72,0,0,0-1.12.17,3,3,0,0,0-1,.52,2.55,2.55,0,0,0-.76.87,2.62,2.62,0,0,0-.28,1.25,2.36,2.36,0,0,0,.27,1.19,2.74,2.74,0,0,0,.73.79,4.19,4.19,0,0,0,1,.54l1.22.42c.52.17,1,.36,1.57.55a5.56,5.56,0,0,1,1.42.78,3.56,3.56,0,0,1,1,1.2,3.93,3.93,0,0,1,.4,1.85,4.06,4.06,0,0,1-.43,1.94,3.93,3.93,0,0,1-1.11,1.34,4.58,4.58,0,0,1-1.56.78,6.37,6.37,0,0,1-1.77.26A6.88,6.88,0,0,1,197,30.2a6.26,6.26,0,0,1-1.29-.41,5.14,5.14,0,0,1-1.14-.7,5.08,5.08,0,0,1-.94-1l1.32-1a4,4,0,0,0,1.36,1.35,3.86,3.86,0,0,0,2.06.54,4.06,4.06,0,0,0,1.17-.18,3.5,3.5,0,0,0,1.07-.55,3.27,3.27,0,0,0,.78-.91,2.8,2.8,0,0,0,0-2.56,2.73,2.73,0,0,0-.82-.87,4.66,4.66,0,0,0-1.16-.58c-.44-.16-.9-.31-1.38-.47a14.77,14.77,0,0,1-1.45-.53,4.85,4.85,0,0,1-1.3-.77,3.79,3.79,0,0,1-.92-1.17,3.88,3.88,0,0,1-.34-1.72,3.76,3.76,0,0,1,.43-1.86,4,4,0,0,1,1.13-1.29,4.82,4.82,0,0,1,1.55-.74,6.46,6.46,0,0,1,1.67-.23m0-.25a6.57,6.57,0,0,0-1.74.24,4.91,4.91,0,0,0-1.63.78,4.29,4.29,0,0,0-1.2,1.37,4,4,0,0,0-.46,2,4.06,4.06,0,0,0,.37,1.83,3.92,3.92,0,0,0,1,1.25,4.9,4.9,0,0,0,1.36.81c.48.2,1,.38,1.48.54l1.37.46a4.94,4.94,0,0,1,1.1.56,2.39,2.39,0,0,1,.74.78,2.31,2.31,0,0,1,.28,1.18,2.28,2.28,0,0,1-.28,1.13,2.89,2.89,0,0,1-1.71,1.35,3.75,3.75,0,0,1-1.09.17,3.56,3.56,0,0,1-1.93-.51A3.68,3.68,0,0,1,195.12,27l-.14-.23-.22.16-1.31,1-.2.14.14.2a5.32,5.32,0,0,0,1,1,5.66,5.66,0,0,0,1.2.73,6.56,6.56,0,0,0,1.34.43,7.39,7.39,0,0,0,1.4.14,6.81,6.81,0,0,0,1.84-.26,5,5,0,0,0,1.64-.83A4.25,4.25,0,0,0,203,28.07a4.37,4.37,0,0,0,.46-2.05,4.16,4.16,0,0,0-.43-2,4.05,4.05,0,0,0-1.11-1.28,5.72,5.72,0,0,0-1.48-.81c-.54-.2-1.07-.39-1.59-.55l-1.2-.42a4.44,4.44,0,0,1-1-.51,2.26,2.26,0,0,1-.66-.72,2.08,2.08,0,0,1-.24-1.06,2.38,2.38,0,0,1,.25-1.13,2.51,2.51,0,0,1,.69-.79,2.75,2.75,0,0,1,.95-.48,3.86,3.86,0,0,1,2.77.22,3.41,3.41,0,0,1,1.17,1l.15.21.21-.16,1.21-1,.18-.15-.14-.19a4.75,4.75,0,0,0-1.72-1.36,6.09,6.09,0,0,0-2.71-.56Z"/><polygon points="211.35 30.08 211.35 16.46 206.33 16.46 206.33 14.85 218.13 14.85 218.13 16.46 213.12 16.46 213.12 30.08 211.35 30.08"/><path d="M218,15v1.35h-5V30h-1.53V16.33h-5V15H218m.25-.25h-12v1.85h5V30.21h2V16.58h5V14.73Z"/><path d="M231.93,30.08l-1.65-3.93h-7.57l-1.63,3.93h-2l6.58-15.23h1.65l6.54,15.23Zm-2.32-5.58L226.49,17l-3.11,7.5Z"/><path d="M227.28,15l6.43,15H232L230.37,26h-7.75L221,30h-1.67l6.48-15h1.48m-4.09,9.65h6.6l-3.3-8-3.3,8m4.25-9.9h-1.81l-.06.15-6.48,15-.15.35h2.22l.06-.16,1.57-3.78h7.41l1.59,3.78.06.16h2.24l-.15-.35-6.43-15-.07-.15Zm-3.87,9.65,2.92-7.06,2.93,7.06Z"/></g></g></svg>