<svg xmlns="http://www.w3.org/2000/svg" viewBox="0 0 274.21 64.47"><defs><style>.cls-1{fill:#03c5e5;}.cls-2{fill:#fff;stroke:#fff;stroke-miterlimit:10;stroke-width:0.14px;}</style></defs><title>repo_online_button</title><g id="Layer_2" data-name="Layer 2"><g id="Isolation_Mode" data-name="Isolation Mode"><path class="cls-1" d="M196.54,30.83H15.41A15.41,15.41,0,0,1,0,15.41H0A15.41,15.41,0,0,1,15.41,0H258.8a15.41,15.41,0,0,1,15.41,15.41h0A15.41,15.41,0,0,1,258.8,30.83H196.54"/><path class="cls-2" d="M20.26,15.64h2.08l3.39,5.73h1.52l-3.58-5.84a4.17,4.17,0,0,0,1.25-.31,2.9,2.9,0,0,0,1-.65,2.94,2.94,0,0,0,.66-1,3.07,3.07,0,0,0,.24-1.23,3.35,3.35,0,0,0-.31-1.52,2.66,2.66,0,0,0-.87-1,3.71,3.71,0,0,0-1.33-.56,7.37,7.37,0,0,0-1.67-.18H19V21.37h1.25Zm0-5.45h2.22a6.13,6.13,0,0,1,1.26.12,2.73,2.73,0,0,1,1,.38,1.81,1.81,0,0,1,.62.67,2.13,2.13,0,0,1,.23,1A1.83,1.83,0,0,1,24.74,14a4.15,4.15,0,0,1-2.31.55H20.26Zm12.1,5.34H38.3v-1.1H32.36V10.22h6.35V9.11H31.12V21.37h7.8V20.26H32.36Zm10.73,5.84h1.25v-5.7h2.18a7,7,0,0,0,1.71-.2,3.88,3.88,0,0,0,1.31-.62,2.71,2.71,0,0,0,.85-1,3.26,3.26,0,0,0,.3-1.45,3.25,3.25,0,0,0-.29-1.44,2.78,2.78,0,0,0-.84-1,3.69,3.69,0,0,0-1.31-.61,6.75,6.75,0,0,0-1.69-.2H43.09Zm1.25-11.18h2.11a4,4,0,0,1,2.21.52,1.87,1.87,0,0,1,.79,1.67,2,2,0,0,1-.76,1.67,3.72,3.72,0,0,1-2.24.57H44.34ZM66.5,12.66a6.06,6.06,0,0,0-3.37-3.37,6.8,6.8,0,0,0-5.07,0,6.06,6.06,0,0,0-3.37,3.37,7.17,7.17,0,0,0,0,5.16,6.3,6.3,0,0,0,1.34,2,6.44,6.44,0,0,0,2,1.35,6.93,6.93,0,0,0,5.07,0,6.33,6.33,0,0,0,2-1.35,6.14,6.14,0,0,0,1.34-2,7.17,7.17,0,0,0,0-5.16Zm-1.18,4.63a5,5,0,0,1-1,1.69,4.81,4.81,0,0,1-1.6,1.16,5,5,0,0,1-2.12.43,5,5,0,0,1-2.12-.43A4.85,4.85,0,0,1,56.87,19a5.12,5.12,0,0,1-1-1.69,6.07,6.07,0,0,1-.35-2,6,6,0,0,1,.35-2,5.16,5.16,0,0,1,1-1.7,4.88,4.88,0,0,1,1.61-1.17,5,5,0,0,1,2.12-.43,5,5,0,0,1,2.12.43,4.84,4.84,0,0,1,1.6,1.17,5,5,0,0,1,1,1.7,6,6,0,0,1,.35,2A6.07,6.07,0,0,1,65.32,17.29Zm14.06-7.07a5.32,5.32,0,0,0-1.91-1.13,6.29,6.29,0,0,0-2.13-.39,7.2,7.2,0,0,0-1.73.22,5,5,0,0,0-1.54.69A3.59,3.59,0,0,0,71,10.81a3.51,3.51,0,0,0-.42,1.77A3.39,3.39,0,0,0,70.83,14a3.13,3.13,0,0,0,.71,1,3.78,3.78,0,0,0,1,.67,10.36,10.36,0,0,0,1.16.46c.41.13.77.24,1.09.36a4.44,4.44,0,0,1,.81.36,1.66,1.66,0,0,1,.49.45,1,1,0,0,1,.18.59,1.39,1.39,0,0,1-.14.63,1.18,1.18,0,0,1-.38.42,1.51,1.51,0,0,1-.55.22,2.73,2.73,0,0,1-.64.07,3.27,3.27,0,0,1-1.48-.37,3.53,3.53,0,0,1-1.19-.94l-2,2a5.42,5.42,0,0,0,2,1.32,7.26,7.26,0,0,0,2.57.46,6.5,6.5,0,0,0,1.76-.24,4.41,4.41,0,0,0,1.52-.75,3.75,3.75,0,0,0,1.05-1.28,3.93,3.93,0,0,0,.4-1.84A3,3,0,0,0,78.93,16,3.54,3.54,0,0,0,78,15a5.12,5.12,0,0,0-1.24-.67l-1.31-.46-.79-.27a3.36,3.36,0,0,1-.6-.29,1.12,1.12,0,0,1-.38-.37.91.91,0,0,1-.13-.52,1,1,0,0,1,.16-.6,1.24,1.24,0,0,1,.41-.38,1.52,1.52,0,0,1,.55-.2,3.21,3.21,0,0,1,.6-.06,2.85,2.85,0,0,1,1.2.29,2.61,2.61,0,0,1,1,.78Zm14.1,6.49V9h-3v7.45a3.42,3.42,0,0,1-.13,1,2.2,2.2,0,0,1-.4.81,1.84,1.84,0,0,1-.72.56,2.86,2.86,0,0,1-2.15,0,1.89,1.89,0,0,1-.71-.56,2.36,2.36,0,0,1-.4-.81,3.42,3.42,0,0,1-.13-1V9h-3v7.69a5.32,5.32,0,0,0,.37,2,4.36,4.36,0,0,0,1,1.57,4.74,4.74,0,0,0,1.66,1,6.7,6.7,0,0,0,4.39,0,4.73,4.73,0,0,0,1.68-1,4.3,4.3,0,0,0,1.07-1.57A5.32,5.32,0,0,0,93.48,16.71Zm13.58,0a2.73,2.73,0,0,0-.54-.86,3,3,0,0,0-.8-.6,3.11,3.11,0,0,0-1-.32v0a3.14,3.14,0,0,0,1.47-1,2.56,2.56,0,0,0,.56-1.7,2.83,2.83,0,0,0-.39-1.55,2.87,2.87,0,0,0-1-1,4.1,4.1,0,0,0-1.36-.5A7.48,7.48,0,0,0,102.55,9H97.63V21.37h4.92a8.42,8.42,0,0,0,1.74-.18,4.94,4.94,0,0,0,1.51-.61,3.19,3.19,0,0,0,1.06-1.1,3.33,3.33,0,0,0,.4-1.71A2.9,2.9,0,0,0,107.06,16.68Zm-3.65-3.08a2.19,2.19,0,0,1-1.3.34h-1.6V11.39H102a2.84,2.84,0,0,1,1.42.29,1,1,0,0,1,.48.91A1.17,1.17,0,0,1,103.41,13.6Zm.68,4.64a1.32,1.32,0,0,1-.5.44,2.09,2.09,0,0,1-.68.22,4.59,4.59,0,0,1-.73.06h-1.67V16.13h1.66a3.3,3.3,0,0,1,1.53.3,1.09,1.09,0,0,1,.58,1.07A1.37,1.37,0,0,1,104.09,18.24Zm18.58,3.13L117.54,9h-2.9l-5.18,12.35h3.24l.91-2.43h4.78l1,2.43Zm-5.1-4.82h-3.1L116,12.31Zm16.3-6.33A5.5,5.5,0,0,0,132,9.09a6.34,6.34,0,0,0-2.14-.39,7.26,7.26,0,0,0-1.73.22,4.85,4.85,0,0,0-1.53.69,3.61,3.61,0,0,0-1.1,1.2,3.51,3.51,0,0,0-.42,1.77,3.39,3.39,0,0,0,.27,1.42,3.13,3.13,0,0,0,.71,1,3.68,3.68,0,0,0,1,.67,9,9,0,0,0,1.16.46c.4.13.77.24,1.09.36a4.32,4.32,0,0,1,.8.36,1.84,1.84,0,0,1,.5.45,1,1,0,0,1,.17.59,1.39,1.39,0,0,1-.14.63,1.25,1.25,0,0,1-.37.42,1.59,1.59,0,0,1-.55.22,2.81,2.81,0,0,1-.65.07,3.2,3.2,0,0,1-1.47-.37,3.47,3.47,0,0,1-1.2-.94l-1.95,2a5.38,5.38,0,0,0,2.06,1.32,7.2,7.2,0,0,0,2.56.46,6.45,6.45,0,0,0,1.76-.24,4.41,4.41,0,0,0,1.52-.75,3.89,3.89,0,0,0,1.06-1.28,4.06,4.06,0,0,0,.39-1.84,2.94,2.94,0,0,0-.37-1.55,3.54,3.54,0,0,0-.92-1,4.94,4.94,0,0,0-1.24-.67l-1.31-.46q-.44-.13-.78-.27a3.16,3.16,0,0,1-.61-.29,1.12,1.12,0,0,1-.38-.37.91.91,0,0,1-.13-.52,1,1,0,0,1,.16-.6,1.24,1.24,0,0,1,.41-.38,1.52,1.52,0,0,1,.55-.2,3.23,3.23,0,0,1,.61-.06,2.84,2.84,0,0,1,1.19.29,2.61,2.61,0,0,1,1,.78ZM146,11.56V9h-10v2.54h3.49v9.81h3V11.56Zm13.75,9.81L154.66,9h-2.9l-5.18,12.35h3.25l.91-2.43h4.78l.95,2.43Zm-5.09-4.82h-3.11l1.57-4.24Zm39.53-4.09a6,6,0,0,0-1.41-2,6.11,6.11,0,0,0-2.13-1.29,8.24,8.24,0,0,0-5.37,0,6.21,6.21,0,0,0-2.13,1.29,6.09,6.09,0,0,0-1.4,2,6.78,6.78,0,0,0-.51,2.68,6.85,6.85,0,0,0,.51,2.68,6.16,6.16,0,0,0,1.4,2.07,6.32,6.32,0,0,0,2.13,1.34,7.9,7.9,0,0,0,5.37,0,6.22,6.22,0,0,0,2.13-1.34,6,6,0,0,0,1.41-2.07,6.84,6.84,0,0,0,.5-2.68A6.77,6.77,0,0,0,194.23,12.46Zm-2.95,4.22a3.53,3.53,0,0,1-4.71,2,3.4,3.4,0,0,1-1.11-.79,3.52,3.52,0,0,1-.72-1.22,4.26,4.26,0,0,1-.26-1.54,4.37,4.37,0,0,1,.25-1.5,3.48,3.48,0,0,1,.72-1.19,3.4,3.4,0,0,1,1.12-.79,3.51,3.51,0,0,1,1.43-.29,3.6,3.6,0,0,1,1.44.29,3.21,3.21,0,0,1,1.12.79,3.64,3.64,0,0,1,.72,1.19,4.38,4.38,0,0,1,.26,1.5A4.48,4.48,0,0,1,191.28,16.68Zm18.41,4.69V9h-2.9l.07,8.06h-.05l-5-8.06h-3.4V21.37h2.9l-.07-8.08h.05l5,8.08Zm12.07,0v-2.6H217V9h-3V21.37Zm6.14,0V9h-3V21.37Zm15.52,0V9h-2.89l.07,8.06h0l-5-8.06h-3.4V21.37h2.9L235,13.29h0l5,8.08Zm12.91,0V18.82h-5.74V16.26h5.13V13.87h-5.13V11.53H256V9h-8.3V21.37Zm-86.86,43h15.69a19.1,19.1,0,0,0,4.71-8.48L192,45a2.93,2.93,0,0,0-2.94-3.14c-1.82,0-2.81,1.4-2.81,3.14V42a3.49,3.49,0,0,0-3.57-3.14c-1.82,0-2.78,1.41-2.78,3.14V39.57a3.17,3.17,0,0,0-6.34,0V27.38c0-4.23-6.35-4.23-6.35,0V49.59l-4.85-3.87c-2.57-2.46-5.24-3.44-7.81-1l11.67,16.38A15.9,15.9,0,0,0,169.47,64.4Zm10.46-47.05-1-.86-4.07,4.87,1,.85ZM178.13,27l-.24-1.31,6.25-1.12.23,1.31Zm-15.52.1-6.26-1,.22-1.32,6.26,1Zm2.21-4.84-4.14-4.81,1-.87,4.14,4.81ZM169.61,20l-.08-6.35,1.33,0,.08,6.35Z"/></g></g></svg>