<svg xmlns="http://www.w3.org/2000/svg" viewBox="0 0 39.75 39.75"><defs><style>.cls-1{fill:#1ba7d1;}</style></defs><title>TTicon</title><g id="Layer_2" data-name="Layer 2"><g id="Layer_3" data-name="Layer 3"><path class="cls-1" d="M0,20.07A19.87,19.87,0,1,1,20.18,39.75,19.87,19.87,0,0,1,0,20.07Zm6.38,8.81v.06l.31.2a17.69,17.69,0,0,0,2.92,1.38,15.42,15.42,0,0,0,4.39.92,14.47,14.47,0,0,0,2.94-.06,19,19,0,0,0,2.61-.48A15.82,15.82,0,0,0,29.82,22a15.72,15.72,0,0,0,1.07-3.14,21.42,21.42,0,0,0,.38-2.38c.06-.59,0-1.17,0-1.75a.4.4,0,0,1,.15-.35c.33-.28.67-.55,1-.85A12.33,12.33,0,0,0,34,11.81c0-.06.17-.14.11-.21s-.17,0-.25,0h0a9.44,9.44,0,0,1-2.43.67c-.08,0-.16.06-.27,0A6,6,0,0,0,32.5,11a6.51,6.51,0,0,0,.9-1.74l-.17.09A12.18,12.18,0,0,1,30,10.58a.37.37,0,0,1-.4-.1c-.1-.1-.2-.22-.31-.31a8.21,8.21,0,0,0-1.35-.84,5.22,5.22,0,0,0-3.1-.46,5.59,5.59,0,0,0-4.56,3.54,5.27,5.27,0,0,0-.33,3.14c0,.24,0,.27-.21.25-.51,0-1-.07-1.54-.16A16.34,16.34,0,0,1,13,13.84a16.69,16.69,0,0,1-4.61-3.79c-.15-.17-.19-.17-.29,0a5.92,5.92,0,0,0-.68,2.6A5.71,5.71,0,0,0,8,15.19a5,5,0,0,0,1.14,1.6c.24.22.46.46.72.67a2.64,2.64,0,0,1-.57,0,5.81,5.81,0,0,1-1.68-.55c-.17-.09-.22-.05-.22.13a3.12,3.12,0,0,0,0,.44A5.64,5.64,0,0,0,11,22.16c.24.1.5.19.75.28,0,.09-.11.07-.16.08a5.12,5.12,0,0,1-1.91.05c-.08,0-.18-.07-.23,0s0,.13.05.2A5.17,5.17,0,0,0,10.13,24,5.75,5.75,0,0,0,14,26.47l.7.1A11.5,11.5,0,0,1,6.38,28.88Z"/></g></g></svg>